<mxfile>
    <diagram id="K1PiYW7plfjryU15QX6y" name="Page-1">
        <mxGraphModel dx="717" dy="1126" grid="1" gridSize="10" guides="1" tooltips="1" connect="1" arrows="1" fold="1" page="1" pageScale="1" pageWidth="827" pageHeight="1169" math="0" shadow="0">
            <root>
                <mxCell id="0"/>
                <mxCell id="1" parent="0"/>
                <mxCell id="92" value="" style="rounded=0;whiteSpace=wrap;html=1;align=center;" vertex="1" parent="1">
                    <mxGeometry x="160" y="600" width="200" height="160" as="geometry"/>
                </mxCell>
                <mxCell id="3" value="Questão 17" style="text;strokeColor=none;fillColor=none;html=1;fontSize=24;fontStyle=1;verticalAlign=middle;align=center;" parent="1" vertex="1">
                    <mxGeometry x="240" y="40" width="348" height="40" as="geometry"/>
                </mxCell>
                <mxCell id="4" value="&lt;h2&gt;Sem usar atributos opcionais, nem atributos multivalorados, construa um DER que contenha as mesmas informações do DER da Figura.&lt;/h2&gt;" style="text;strokeColor=none;fillColor=none;align=left;verticalAlign=middle;whiteSpace=wrap;rounded=0;html=1;" parent="1" vertex="1">
                    <mxGeometry x="80" y="280" width="640" height="40" as="geometry"/>
                </mxCell>
                <mxCell id="65" value="CLIENTE" style="whiteSpace=wrap;html=1;" parent="1" vertex="1">
                    <mxGeometry x="360" y="120" width="120" height="40" as="geometry"/>
                </mxCell>
                <mxCell id="68" style="edgeStyle=orthogonalEdgeStyle;rounded=0;orthogonalLoop=1;jettySize=auto;html=1;exitX=0.5;exitY=0;exitDx=0;exitDy=0;entryX=0.708;entryY=1;entryDx=0;entryDy=0;entryPerimeter=0;endArrow=none;endFill=0;" parent="1" source="66" target="65" edge="1">
                    <mxGeometry relative="1" as="geometry"/>
                </mxCell>
                <mxCell id="66" value="telefone(0,n)" style="ellipse;whiteSpace=wrap;html=1;aspect=fixed;labelPosition=right;verticalLabelPosition=middle;align=left;verticalAlign=middle;" parent="1" vertex="1">
                    <mxGeometry x="440" y="180" width="10" height="10" as="geometry"/>
                </mxCell>
                <mxCell id="69" style="edgeStyle=orthogonalEdgeStyle;rounded=0;orthogonalLoop=1;jettySize=auto;html=1;exitX=0.5;exitY=0;exitDx=0;exitDy=0;entryX=0.452;entryY=1.025;entryDx=0;entryDy=0;entryPerimeter=0;endArrow=none;endFill=0;" parent="1" source="70" target="65" edge="1">
                    <mxGeometry relative="1" as="geometry">
                        <mxPoint x="413.96000000000004" y="180" as="targetPoint"/>
                    </mxGeometry>
                </mxCell>
                <mxCell id="70" value="código" style="ellipse;whiteSpace=wrap;html=1;aspect=fixed;labelPosition=right;verticalLabelPosition=middle;align=left;verticalAlign=middle;" parent="1" vertex="1">
                    <mxGeometry x="409" y="200" width="10" height="10" as="geometry"/>
                </mxCell>
                <mxCell id="71" style="edgeStyle=orthogonalEdgeStyle;rounded=0;orthogonalLoop=1;jettySize=auto;html=1;exitX=0.5;exitY=0;exitDx=0;exitDy=0;entryX=0.452;entryY=1.025;entryDx=0;entryDy=0;entryPerimeter=0;endArrow=none;endFill=0;" parent="1" source="72" edge="1">
                    <mxGeometry relative="1" as="geometry">
                        <mxPoint x="385.24" y="161" as="targetPoint"/>
                    </mxGeometry>
                </mxCell>
                <mxCell id="72" value="nome" style="ellipse;whiteSpace=wrap;html=1;aspect=fixed;labelPosition=right;verticalLabelPosition=middle;align=left;verticalAlign=middle;" parent="1" vertex="1">
                    <mxGeometry x="380" y="220" width="10" height="10" as="geometry"/>
                </mxCell>
                <mxCell id="80" value="Uma possível solução é transformar &quot;telefone&quot; numa entidade de relacionamento 0,n com CLIENTE." style="text;html=1;strokeColor=none;fillColor=none;align=center;verticalAlign=middle;whiteSpace=wrap;rounded=0;" vertex="1" parent="1">
                    <mxGeometry x="80" y="360" width="640" height="40" as="geometry"/>
                </mxCell>
                <mxCell id="83" value="CLIENTE" style="whiteSpace=wrap;html=1;" vertex="1" parent="1">
                    <mxGeometry x="180" y="620" width="120" height="40" as="geometry"/>
                </mxCell>
                <mxCell id="84" style="edgeStyle=orthogonalEdgeStyle;rounded=0;orthogonalLoop=1;jettySize=auto;html=1;exitX=0.5;exitY=0;exitDx=0;exitDy=0;entryX=0.708;entryY=1;entryDx=0;entryDy=0;entryPerimeter=0;endArrow=none;endFill=0;" edge="1" source="85" target="83" parent="1">
                    <mxGeometry relative="1" as="geometry"/>
                </mxCell>
                <mxCell id="85" value="telefone(0,n)" style="rounded=0;whiteSpace=wrap;html=1;fontFamily=Helvetica;fontSize=12;fontColor=#000000;align=left;strokeColor=#000000;fillColor=#ffffff;labelPosition=right;verticalLabelPosition=middle;verticalAlign=middle;" vertex="1" parent="1">
                    <mxGeometry x="260" y="680" width="10" height="10" as="geometry"/>
                </mxCell>
                <mxCell id="86" style="edgeStyle=orthogonalEdgeStyle;rounded=0;orthogonalLoop=1;jettySize=auto;html=1;exitX=0.5;exitY=0;exitDx=0;exitDy=0;entryX=0.452;entryY=1.025;entryDx=0;entryDy=0;entryPerimeter=0;endArrow=none;endFill=0;" edge="1" source="87" target="83" parent="1">
                    <mxGeometry relative="1" as="geometry">
                        <mxPoint x="233.96000000000004" y="680" as="targetPoint"/>
                    </mxGeometry>
                </mxCell>
                <mxCell id="87" value="código" style="ellipse;whiteSpace=wrap;html=1;aspect=fixed;labelPosition=right;verticalLabelPosition=middle;align=left;verticalAlign=middle;" vertex="1" parent="1">
                    <mxGeometry x="229" y="700" width="10" height="10" as="geometry"/>
                </mxCell>
                <mxCell id="88" style="edgeStyle=orthogonalEdgeStyle;rounded=0;orthogonalLoop=1;jettySize=auto;html=1;exitX=0.5;exitY=0;exitDx=0;exitDy=0;entryX=0.452;entryY=1.025;entryDx=0;entryDy=0;entryPerimeter=0;endArrow=none;endFill=0;" edge="1" source="89" parent="1">
                    <mxGeometry relative="1" as="geometry">
                        <mxPoint x="205.24" y="661" as="targetPoint"/>
                    </mxGeometry>
                </mxCell>
                <mxCell id="89" value="nome" style="ellipse;whiteSpace=wrap;html=1;aspect=fixed;labelPosition=right;verticalLabelPosition=middle;align=left;verticalAlign=middle;" vertex="1" parent="1">
                    <mxGeometry x="200" y="720" width="10" height="10" as="geometry"/>
                </mxCell>
                <mxCell id="96" style="edgeStyle=orthogonalEdgeStyle;rounded=0;orthogonalLoop=1;jettySize=auto;html=1;" edge="1" parent="1" source="91" target="90">
                    <mxGeometry relative="1" as="geometry">
                        <mxPoint x="390" y="540" as="targetPoint"/>
                    </mxGeometry>
                </mxCell>
                <mxCell id="91" value="Resposta visual" style="rounded=0;whiteSpace=wrap;html=1;align=center;" vertex="1" parent="1">
                    <mxGeometry x="320" y="440" width="120" height="60" as="geometry"/>
                </mxCell>
                <mxCell id="97" style="edgeStyle=orthogonalEdgeStyle;rounded=0;orthogonalLoop=1;jettySize=auto;html=1;" edge="1" parent="1" source="90" target="92">
                    <mxGeometry relative="1" as="geometry"/>
                </mxCell>
                <mxCell id="100" style="edgeStyle=orthogonalEdgeStyle;rounded=0;orthogonalLoop=1;jettySize=auto;html=1;" edge="1" parent="1" source="90" target="98">
                    <mxGeometry relative="1" as="geometry"/>
                </mxCell>
                <mxCell id="90" value="" style="shape=orEllipse;perimeter=ellipsePerimeter;whiteSpace=wrap;html=1;backgroundOutline=1;align=center;" vertex="1" parent="1">
                    <mxGeometry x="360" y="520" width="40" height="40" as="geometry"/>
                </mxCell>
                <mxCell id="98" value="" style="rounded=0;whiteSpace=wrap;html=1;align=center;" vertex="1" parent="1">
                    <mxGeometry x="400" y="600" width="280" height="160" as="geometry"/>
                </mxCell>
                <mxCell id="73" value="CLIENTE" style="whiteSpace=wrap;html=1;" vertex="1" parent="1">
                    <mxGeometry x="419" y="620" width="120" height="40" as="geometry"/>
                </mxCell>
                <mxCell id="74" value="(0,n)" style="edgeStyle=orthogonalEdgeStyle;rounded=0;orthogonalLoop=1;jettySize=auto;html=1;endArrow=none;endFill=0;" edge="1" source="75" target="73" parent="1">
                    <mxGeometry relative="1" as="geometry"/>
                </mxCell>
                <mxCell id="75" value="telefone" style="rounded=0;whiteSpace=wrap;html=1;fontFamily=Helvetica;fontSize=12;fontColor=#000000;align=center;strokeColor=#000000;fillColor=#ffffff;" vertex="1" parent="1">
                    <mxGeometry x="579" y="620" width="80" height="40" as="geometry"/>
                </mxCell>
                <mxCell id="76" style="edgeStyle=orthogonalEdgeStyle;rounded=0;orthogonalLoop=1;jettySize=auto;html=1;exitX=0.5;exitY=0;exitDx=0;exitDy=0;entryX=0.452;entryY=1.025;entryDx=0;entryDy=0;entryPerimeter=0;endArrow=none;endFill=0;" edge="1" source="77" target="73" parent="1">
                    <mxGeometry relative="1" as="geometry">
                        <mxPoint x="472.96000000000004" y="680" as="targetPoint"/>
                    </mxGeometry>
                </mxCell>
                <mxCell id="77" value="código" style="ellipse;whiteSpace=wrap;html=1;aspect=fixed;labelPosition=right;verticalLabelPosition=middle;align=left;verticalAlign=middle;" vertex="1" parent="1">
                    <mxGeometry x="468" y="670" width="10" height="10" as="geometry"/>
                </mxCell>
                <mxCell id="78" style="edgeStyle=orthogonalEdgeStyle;rounded=0;orthogonalLoop=1;jettySize=auto;html=1;exitX=0.5;exitY=0;exitDx=0;exitDy=0;entryX=0.452;entryY=1.025;entryDx=0;entryDy=0;entryPerimeter=0;endArrow=none;endFill=0;" edge="1" source="79" parent="1">
                    <mxGeometry relative="1" as="geometry">
                        <mxPoint x="444.24" y="661" as="targetPoint"/>
                    </mxGeometry>
                </mxCell>
                <mxCell id="79" value="nome" style="ellipse;whiteSpace=wrap;html=1;aspect=fixed;labelPosition=right;verticalLabelPosition=middle;align=left;verticalAlign=middle;" vertex="1" parent="1">
                    <mxGeometry x="439" y="690" width="10" height="10" as="geometry"/>
                </mxCell>
            </root>
        </mxGraphModel>
    </diagram>
</mxfile>